{"glyphs":{"0":{"ha":753,"x_min":132,"x_max":942,"o":"m 360 0 q 138 174 167 0 q 132 250 132 211 q 174 476 132 357 l 176 486 l 181 494 q 251 642 204 561 q 365 799 297 724 q 714 972 521 972 q 935 799 906 972 q 942 722 942 761 q 899 494 942 614 l 894 485 l 892 476 q 707 174 829 308 q 360 0 551 0 m 371 31 q 525 76 457 31 q 645 193 593 122 q 734 341 697 264 q 795 485 771 418 q 839 631 819 553 q 858 779 858 708 q 703 942 856 942 q 428 779 549 942 q 278 486 335 654 q 215 203 215 322 l 215 160 q 251 76 215 122 q 371 31 286 31 z "},"1":{"ha":282,"x_min":0,"x_max":529,"o":"m 247 0 l 0 0 l 6 17 q 119 118 86 17 l 379 832 q 392 881 392 865 q 388 894 392 886 q 328 901 383 901 l 335 918 q 419 932 374 918 q 497 960 464 946 l 529 972 l 218 118 l 217 115 q 203 57 203 75 q 210 31 203 44 q 253 17 217 17 l 247 0 z "},"2":{"ha":607,"x_min":0,"x_max":836,"o":"m 568 0 l 0 0 l 13 33 q 349 212 204 101 q 588 447 494 322 q 719 685 682 572 q 744 814 744 758 q 730 893 744 844 q 631 942 715 942 q 350 701 460 942 q 323 672 340 683 q 288 660 306 660 q 254 690 254 660 q 263 717 254 703 q 358 842 301 785 q 486 936 415 900 q 638 972 557 972 q 822 868 783 972 q 836 789 836 832 q 788 600 836 707 q 600 356 722 467 q 365 177 478 246 q 213 99 251 108 l 517 99 l 528 100 q 556 110 539 101 q 617 181 597 128 l 633 181 l 568 0 z "},"3":{"ha":635,"x_min":90,"x_max":908,"o":"m 292 0 l 283 0 q 122 79 167 6 q 90 204 90 133 q 94 253 90 229 q 118 295 99 278 q 161 313 138 313 q 187 303 179 313 q 194 283 194 293 l 193 271 q 164 140 164 193 q 192 62 164 93 q 299 31 221 31 q 437 76 372 31 q 551 192 501 122 q 628 342 600 263 q 658 492 657 421 q 571 649 656 611 q 456 671 521 671 l 408 667 q 458 722 410 679 q 572 808 507 764 q 690 872 638 853 l 421 872 l 410 871 q 381 863 397 869 q 349 839 365 856 q 319 792 332 822 l 303 792 l 369 972 l 908 971 l 897 939 q 497 711 661 854 q 540 714 519 714 q 607 708 568 714 q 688 674 646 703 q 758 508 758 618 q 731 357 758 435 q 632 183 696 264 q 481 51 568 103 q 292 0 393 0 z "},"4":{"ha":650,"x_min":75,"x_max":888,"o":"m 578 0 l 326 0 l 332 17 q 446 118 413 17 l 478 204 l 75 204 l 85 235 l 86 235 q 203 431 108 297 q 437 715 297 565 q 736 972 576 864 l 888 972 q 552 734 718 881 q 268 447 386 588 q 122 235 150 307 l 489 235 l 649 674 l 747 674 l 588 235 l 701 235 l 690 204 l 576 204 l 544 118 q 531 58 531 82 q 538 31 531 44 q 583 17 546 17 l 578 0 z "},"5":{"ha":635,"x_min":90,"x_max":924,"o":"m 292 0 l 283 0 q 122 79 167 6 q 90 204 90 133 q 94 253 90 229 q 118 295 99 278 q 161 313 138 313 q 187 303 179 313 q 194 283 194 293 l 193 271 q 165 163 172 218 l 164 139 q 188 65 164 100 q 299 31 211 31 q 436 76 372 31 q 548 191 500 121 q 625 342 596 261 q 660 510 660 435 q 622 619 660 574 q 482 674 581 674 q 399 664 442 674 q 325 642 356 654 l 293 628 l 476 972 l 924 972 l 900 946 q 849 878 876 918 q 806 797 821 838 l 789 797 q 804 851 804 835 q 799 866 804 858 q 749 874 794 874 l 453 874 l 350 675 l 385 688 q 472 707 419 699 q 540 713 506 713 q 600 709 561 713 q 686 672 639 706 q 756 538 749 625 q 757 503 757 521 q 731 357 757 432 q 632 183 696 264 q 481 51 568 103 q 292 0 393 0 z "},"6":{"ha":624,"x_min":111,"x_max":857,"o":"m 306 0 l 297 0 q 146 69 189 0 q 111 204 111 125 q 117 290 111 225 q 176 478 124 356 q 308 711 228 601 q 487 892 389 821 q 688 971 585 964 l 694 971 q 831 929 800 971 q 857 857 857 894 l 856 838 q 840 807 854 821 q 807 793 825 793 q 789 800 794 793 q 783 815 783 807 l 785 824 q 790 863 790 843 q 788 890 790 871 q 761 926 786 908 q 700 942 740 942 q 547 876 622 942 q 437 752 485 822 q 363 628 389 682 q 460 685 404 664 q 563 707 515 707 q 736 592 707 699 q 747 507 747 551 q 717 353 747 435 q 563 115 671 222 q 306 0 456 8 m 313 31 q 505 140 431 40 q 617 353 579 240 q 657 500 644 426 q 661 547 661 525 q 642 631 661 589 q 547 676 624 672 q 351 565 429 667 q 233 349 272 463 q 197 204 207 276 q 194 165 194 183 q 216 76 194 118 q 313 31 238 35 z "},"7":{"ha":604,"x_min":113,"x_max":924,"o":"m 154 0 q 118 19 128 0 q 113 40 113 29 q 118 65 113 53 q 124 76 121 69 q 132 90 126 82 q 451 551 251 338 q 840 874 651 764 l 529 874 q 464 870 497 874 q 403 850 431 867 q 361 797 375 833 l 344 797 q 360 897 360 843 q 357 949 360 925 l 354 972 l 924 972 l 890 881 q 524 552 696 765 q 254 110 351 339 q 235 59 244 85 q 202 17 225 33 q 154 0 179 0 z "},"8":{"ha":628,"x_min":100,"x_max":831,"o":"m 301 0 l 292 0 q 100 208 100 11 q 126 347 100 274 q 249 544 165 451 q 443 676 333 636 q 358 778 358 704 q 365 818 358 797 q 415 890 379 856 q 651 972 500 972 q 774 949 732 972 q 831 861 831 917 q 822 818 831 840 q 762 735 807 775 q 642 676 717 696 q 746 486 746 625 q 719 347 746 419 q 560 113 672 218 q 301 0 449 8 m 550 694 q 669 734 622 697 q 733 818 717 771 q 742 860 742 840 q 726 911 742 883 q 640 942 710 939 q 519 902 567 939 q 454 818 472 865 q 447 778 447 797 q 463 726 447 754 q 550 694 479 697 m 308 31 q 503 138 424 39 q 621 347 582 236 q 658 526 658 449 q 636 618 658 575 q 539 664 614 661 q 343 557 422 656 q 225 347 264 458 q 189 169 189 246 q 211 76 189 119 q 308 31 233 33 z "},"9":{"ha":631,"x_min":107,"x_max":832,"o":"m 253 0 q 107 117 107 0 q 122 156 107 142 q 154 172 136 171 q 179 147 179 172 l 179 142 q 175 113 175 126 q 178 80 175 100 q 208 43 182 60 q 261 32 226 32 q 424 101 347 32 q 597 351 525 196 q 504 292 556 314 q 397 265 446 265 q 215 371 251 267 q 199 471 199 418 q 222 606 199 535 q 367 847 264 736 q 622 971 471 957 l 636 972 q 832 751 832 972 q 813 606 832 704 q 714 365 793 508 q 522 119 635 221 q 253 0 392 0 m 413 296 q 605 415 531 311 q 714 632 679 518 q 746 800 746 728 q 720 898 746 856 q 617 940 694 940 q 428 825 499 926 q 324 610 357 724 q 292 465 300 538 l 290 431 q 313 338 290 381 q 413 296 335 296 z "},"\u001d":{"ha":524,"x_min":0,"x_max":0,"o":""},"\u0000":{"ha":0,"x_min":0,"x_max":0,"o":""}," ":{"ha":524,"x_min":0,"x_max":0,"o":""},"E":{"ha":818,"x_min":0,"x_max":1108,"o":"m 783 -1 l 0 -1 l 7 21 q 74 43 44 21 q 117 97 104 65 l 400 872 q 404 899 404 886 q 344 947 404 947 l 354 972 l 1108 972 l 1078 808 l 1054 808 q 1058 840 1058 824 q 1055 876 1058 854 q 1030 918 1051 897 q 963 939 1008 939 l 622 939 q 525 872 549 939 l 410 557 l 536 557 q 654 631 606 557 q 682 688 676 667 l 706 688 l 599 393 l 575 393 l 576 397 q 588 460 588 428 q 524 524 588 524 l 397 524 l 242 97 q 236 69 236 82 q 244 44 236 57 q 292 32 253 32 l 674 32 q 743 54 714 32 q 790 106 772 76 q 817 157 808 135 l 819 163 l 843 163 l 783 -1 z "},"F":{"ha":819,"x_min":1,"x_max":1110,"o":"m 290 -1 l 1 -1 l 8 21 q 75 43 46 21 q 117 97 104 65 l 400 874 q 406 900 406 888 q 394 931 406 915 q 344 947 383 947 l 354 972 l 1110 972 l 1079 808 l 1056 808 l 1056 814 q 1058 844 1058 829 q 1056 876 1058 856 q 1031 918 1053 897 q 964 939 1010 939 l 624 939 q 526 874 549 939 l 411 557 l 568 557 q 686 631 638 557 q 714 688 708 667 l 738 688 l 631 393 l 607 393 l 608 397 q 619 460 619 428 q 556 524 619 524 l 399 524 l 243 97 q 239 72 239 85 q 297 21 239 21 l 290 -1 z "},"G":{"ha":957,"x_min":138,"x_max":1142,"o":"m 840 -1 l 715 -1 l 768 144 l 747 122 q 683 72 725 100 q 583 21 642 43 q 447 -1 524 -1 q 214 83 297 -1 q 138 292 138 160 q 151 401 138 342 l 163 444 q 178 489 169 468 q 438 844 265 715 q 797 972 610 972 q 1065 796 1014 967 q 1085 810 1075 796 q 1103 841 1096 824 q 1115 871 1111 858 l 1118 876 l 1142 876 l 1035 583 l 1011 583 l 1013 589 q 1038 715 1038 656 q 1032 760 1038 740 q 783 939 990 933 l 781 939 q 417 715 571 939 q 279 410 318 574 l 269 372 q 254 251 254 307 q 262 171 254 222 q 319 76 269 119 q 458 32 368 32 q 601 60 539 32 q 706 124 664 88 q 771 188 749 160 l 793 215 l 856 386 q 861 413 861 400 q 815 451 861 451 l 769 451 l 782 485 l 1099 485 l 1090 463 q 1024 440 1054 463 q 981 386 993 418 l 840 -1 z "},"H":{"ha":953,"x_min":0,"x_max":1272,"o":"m 918 -1 l 629 -1 l 636 21 q 703 43 674 21 q 746 97 733 65 l 882 468 l 378 468 l 242 97 q 238 72 238 85 q 296 21 238 21 l 289 -1 l 0 -1 l 7 21 q 74 43 44 21 q 117 97 104 65 l 400 874 q 404 899 404 886 q 382 936 404 924 q 344 947 365 946 l 354 972 l 643 972 l 635 949 q 567 927 597 949 q 525 874 538 906 l 389 501 l 893 501 l 1029 874 q 1033 899 1033 888 q 975 949 1033 949 l 983 972 l 1272 972 l 1264 949 q 1197 927 1226 949 q 1154 874 1167 906 l 871 97 q 867 72 867 85 q 925 21 867 21 l 918 -1 z "},"I":{"ha":324,"x_min":0,"x_max":643,"o":"m 289 -1 l 0 -1 l 7 21 q 74 43 44 21 q 117 97 104 65 l 400 874 q 404 899 404 888 q 346 949 404 949 l 354 972 l 643 972 l 635 949 q 567 927 597 949 q 525 874 538 906 l 242 97 q 238 72 238 85 q 296 21 238 21 l 289 -1 z "},"J":{"ha":786,"x_min":76,"x_max":1106,"o":"m 307 -3 q 147 35 201 -3 q 76 168 76 81 q 96 260 76 207 l 133 260 l 128 243 q 114 175 114 208 q 122 124 114 157 q 177 60 129 92 q 319 29 225 29 q 514 92 439 29 q 669 329 604 168 l 704 421 l 871 876 q 876 906 876 893 q 869 928 876 915 q 822 940 861 940 l 536 940 q 396 872 456 940 q 356 814 363 833 l 332 814 l 419 972 l 1106 972 l 1097 950 q 1032 928 1061 950 q 992 876 1003 907 q 793 338 803 358 l 771 293 q 697 178 749 247 q 517 41 618 85 q 307 -3 417 -3 z "},"K":{"ha":953,"x_min":0,"x_max":1236,"o":"m 918 -1 l 617 -1 l 624 21 l 629 21 q 681 56 668 21 q 683 75 683 65 q 681 90 683 82 q 539 482 679 97 l 322 317 l 242 97 q 238 72 238 85 q 296 21 238 21 l 289 -1 l 0 -1 l 7 21 q 74 43 44 21 q 117 97 104 65 q 402 881 401 878 q 404 888 403 885 l 404 893 q 350 947 404 947 l 344 947 l 354 972 l 643 972 l 635 949 q 567 927 597 949 q 525 874 538 906 l 340 365 l 1008 875 q 1042 924 1042 901 q 1031 941 1042 933 q 986 949 1021 949 l 994 972 l 1236 972 l 1228 949 q 1042 865 1160 949 l 663 575 l 835 99 q 865 46 846 71 q 919 21 883 21 l 925 21 l 918 -1 z "},"L":{"ha":825,"x_min":1,"x_max":850,"o":"m 790 -1 l 1 -1 l 8 21 q 75 43 46 21 q 117 97 104 65 l 400 872 q 404 892 404 882 q 351 947 404 947 l 344 947 l 354 972 l 644 972 l 636 949 q 568 927 597 949 q 526 872 539 906 l 243 97 q 238 69 238 82 q 245 44 238 57 q 293 32 253 32 l 679 32 q 749 55 719 32 q 798 106 779 78 q 824 157 817 135 l 826 163 l 850 163 l 790 -1 z "},"M":{"ha":1051,"x_min":0,"x_max":1371,"o":"m 1017 -1 l 728 -1 l 735 21 q 803 43 774 21 q 844 97 833 65 l 1100 797 l 475 -1 l 421 768 l 185 119 q 176 81 176 97 q 263 21 176 21 l 256 -1 l 0 -1 l 7 21 q 86 41 44 21 q 151 119 128 61 l 415 844 l 415 872 q 405 911 414 892 q 379 942 396 931 q 344 947 365 947 l 354 972 l 549 972 l 597 201 l 1131 883 l 1132 896 q 1079 949 1132 949 l 1074 949 l 1082 972 l 1371 972 l 1363 949 q 1296 927 1325 949 q 1254 872 1267 906 l 971 97 q 967 71 967 83 q 1024 21 967 21 l 1017 -1 z "},"N":{"ha":919,"x_min":0,"x_max":1239,"o":"m 885 -1 l 692 -1 l 440 822 l 185 119 q 176 81 176 97 q 263 21 176 21 l 256 -1 l 0 -1 l 7 21 q 86 41 44 21 q 151 119 128 61 l 426 872 l 419 893 q 343 943 403 936 l 354 972 l 547 972 l 796 149 l 1051 850 q 1060 889 1060 872 q 974 949 1060 949 l 982 972 l 1239 972 l 1231 949 q 1085 850 1124 949 l 811 99 l 817 78 q 840 37 825 53 q 892 21 856 21 l 885 -1 z "},"O":{"ha":892,"x_min":135,"x_max":1074,"o":"m 428 -1 q 169 128 242 -1 q 135 274 135 189 q 176 485 135 365 q 429 842 263 713 q 782 972 596 972 q 1003 893 925 972 q 1074 696 1074 822 l 1074 672 l 1068 619 q 1033 485 1061 565 q 780 128 947 257 q 428 -1 613 -1 m 439 32 q 640 92 551 32 q 907 483 804 203 l 908 488 q 961 731 961 639 q 960 785 961 736 q 922 872 958 833 q 764 944 867 944 q 581 885 682 944 q 304 488 407 776 l 303 483 q 246 222 246 332 q 287 87 246 142 q 439 32 328 32 z "},"P":{"ha":872,"x_min":0,"x_max":1099,"o":"m 289 -1 l 0 -1 l 7 21 q 74 43 44 21 q 117 97 104 65 l 400 874 q 404 896 404 886 q 343 943 404 938 l 354 972 l 829 972 q 1011 931 944 972 q 1099 768 1099 875 q 1076 657 1099 717 q 899 431 1025 519 q 600 343 772 343 l 332 343 l 242 97 q 238 72 238 85 q 296 21 238 21 l 289 -1 m 613 376 q 822 455 739 376 q 950 657 906 533 q 979 797 979 735 l 979 833 q 940 902 979 865 q 817 939 901 939 l 618 939 q 558 922 579 939 q 525 874 536 906 l 344 376 l 613 376 z "},"Q":{"ha":1024,"x_min":135,"x_max":1074,"o":"m 428 -1 q 169 128 242 -1 q 135 274 135 189 q 176 485 135 365 q 429 842 263 713 q 782 972 596 972 q 1003 893 925 972 q 1074 696 1074 822 l 1074 672 l 1068 619 q 1033 485 1061 565 q 780 128 947 257 q 428 -1 613 -1 m 439 32 q 640 92 551 32 q 907 483 804 203 l 908 488 q 961 731 961 639 q 960 785 961 736 q 922 872 958 833 q 764 944 867 944 q 581 885 682 944 q 304 488 407 776 l 303 483 q 246 222 246 332 q 287 87 246 142 q 439 32 328 32 m 693 -176 l 682 -176 q 479 -137 594 -176 q 358 -117 414 -117 q 308 -119 347 -117 q 229 -137 268 -122 l 189 -153 q 346 -60 256 -85 q 426 -49 386 -49 q 517 -64 472 -49 l 538 -72 q 714 -119 611 -106 q 753 -122 732 -122 q 963 -71 843 -122 l 933 -96 q 844 -147 904 -122 q 693 -176 785 -172 z "},"R":{"ha":951,"x_min":0,"x_max":1099,"o":"m 917 -1 l 628 -1 l 635 21 q 702 43 672 21 q 744 96 732 65 l 756 125 q 772 211 772 175 q 751 279 772 244 q 679 328 729 314 q 596 343 629 343 l 332 343 l 242 97 q 238 72 238 85 q 296 21 238 21 l 289 -1 l 0 -1 l 7 21 q 74 43 44 21 q 117 97 104 65 l 401 876 q 404 896 404 886 q 386 929 404 917 q 343 943 368 942 l 354 972 l 829 972 q 1011 931 944 972 q 1099 768 1099 875 q 1076 657 1099 717 q 944 466 1036 546 q 721 356 851 386 q 858 279 806 336 q 889 193 889 246 q 874 108 889 156 q 872 101 872 104 q 869 97 871 99 q 865 72 865 85 q 924 21 865 21 l 917 -1 m 613 376 q 822 455 739 376 q 950 657 906 533 q 979 797 979 735 l 979 833 q 940 902 979 865 q 817 939 901 939 l 618 939 q 558 922 579 939 q 525 874 536 906 l 344 376 l 613 376 z "},"S":{"ha":851,"x_min":75,"x_max":1071,"o":"m 383 -1 q 160 56 243 -1 q 75 201 78 114 q 83 218 75 213 q 100 224 92 224 q 110 215 110 224 q 194 84 114 136 q 397 32 275 32 q 666 97 567 32 q 789 257 765 161 q 793 290 793 275 q 729 390 793 353 q 561 453 665 426 q 408 505 479 474 q 306 593 338 536 q 292 653 292 618 q 467 903 292 807 q 767 972 585 967 q 931 938 875 972 q 1003 861 988 903 q 1017 874 1008 861 q 1033 902 1025 886 q 1046 929 1042 918 l 1049 933 l 1071 933 l 978 681 l 956 681 l 958 686 q 975 776 975 736 q 925 888 975 838 q 760 939 875 939 q 558 894 649 939 q 436 765 468 849 q 428 719 428 740 q 488 630 428 665 q 657 567 549 594 q 814 510 740 543 q 919 419 888 478 q 933 361 933 394 q 911 263 933 318 q 808 131 881 190 q 626 35 735 71 q 383 -1 518 -1 z "},"T":{"ha":894,"x_min":285,"x_max":1214,"o":"m 575 -1 l 285 -1 l 292 21 q 358 43 329 21 q 400 97 388 65 l 683 874 q 689 903 689 890 q 682 926 689 914 q 635 939 675 939 l 464 939 q 347 865 394 939 q 318 808 324 829 l 294 808 l 354 972 l 1214 972 l 1154 808 l 1131 808 l 1132 814 q 1143 875 1143 844 q 1131 919 1143 899 q 1079 939 1119 939 l 908 939 q 813 874 835 939 l 529 97 q 525 71 525 83 q 535 38 525 56 q 576 21 546 21 l 582 21 l 575 -1 z "},"U":{"ha":886,"x_min":178,"x_max":1206,"o":"m 443 -1 q 196 104 243 -1 q 178 200 178 144 q 228 426 178 292 l 390 874 q 396 903 396 889 q 346 949 396 946 l 354 972 l 635 972 l 626 949 q 558 927 588 949 q 517 874 529 906 l 353 424 q 292 171 292 257 q 322 73 292 114 q 454 32 353 32 q 647 82 574 32 q 769 218 721 132 q 857 418 817 304 l 1014 850 q 1022 890 1022 874 q 940 949 1022 949 l 949 972 l 1206 972 l 1197 949 q 1115 929 1160 949 q 1047 850 1071 910 l 929 529 l 889 415 q 826 263 861 336 q 743 129 792 189 q 443 -1 635 -1 z "},"V":{"ha":993,"x_min":344,"x_max":1313,"o":"m 469 -1 l 410 874 q 389 919 407 897 q 344 947 371 940 l 354 972 l 639 972 l 631 949 q 570 929 594 949 q 546 879 546 910 l 593 201 l 1104 854 q 1128 908 1128 888 q 1050 949 1128 949 l 1058 972 l 1313 972 l 1304 949 q 1214 926 1250 949 q 1138 851 1178 904 l 469 -1 z "},"W":{"ha":1344,"x_min":346,"x_max":1664,"o":"m 821 -1 l 792 424 l 460 -1 l 400 874 q 385 920 399 897 q 346 949 372 943 l 354 972 l 628 972 l 619 949 q 560 929 585 949 q 536 879 536 910 l 582 201 l 789 465 l 761 874 q 744 924 760 900 q 693 949 729 949 l 701 972 l 990 972 l 982 949 q 922 930 946 949 q 899 885 899 911 l 897 879 l 915 626 l 1094 854 q 1118 908 1118 888 q 1039 949 1118 949 l 1047 972 l 1301 972 l 1293 949 q 1204 926 1240 949 q 1128 851 1168 904 q 918 585 944 617 l 944 201 l 1456 854 q 1481 910 1481 889 q 1401 949 1481 949 l 1410 972 l 1664 972 l 1656 949 q 1567 926 1603 949 q 1489 851 1531 904 l 821 -1 z "},"X":{"ha":954,"x_min":0,"x_max":1274,"o":"m 918 -1 l 629 -1 l 636 21 q 686 39 671 21 q 697 69 697 51 l 696 83 l 582 418 l 240 118 q 201 61 201 85 q 219 31 201 42 q 263 21 236 21 l 256 -1 l 0 -1 l 7 21 q 161 88 63 21 l 572 447 l 428 874 q 346 949 406 949 l 354 972 l 643 972 l 635 949 q 588 934 600 949 q 575 901 575 919 l 576 888 l 689 551 l 1032 850 q 1069 908 1069 885 q 1052 939 1069 929 q 1008 949 1035 949 l 1017 972 l 1274 972 l 1265 949 q 1186 928 1231 949 q 1093 868 1142 908 q 700 522 1074 850 l 843 97 q 871 44 853 68 q 925 21 889 21 l 918 -1 z "},"Y":{"ha":957,"x_min":306,"x_max":1276,"o":"m 594 -1 l 306 -1 l 313 21 q 380 43 350 21 q 422 97 410 65 l 564 483 l 432 874 q 403 925 422 901 q 351 949 385 949 l 346 949 l 354 972 l 646 972 l 638 949 q 589 932 603 949 q 578 904 578 921 q 581 888 578 896 l 693 551 l 1035 850 q 1074 908 1074 885 q 1056 939 1074 929 q 1013 949 1039 949 l 1021 972 l 1276 972 l 1268 949 q 1189 928 1233 949 q 1096 868 1144 908 q 703 522 1076 850 l 547 97 q 543 72 543 85 q 601 21 543 21 l 594 -1 z "},"Z":{"ha":954,"x_min":0,"x_max":1274,"o":"m 890 -1 l 0 -1 l 7 21 l 13 21 q 146 97 65 21 l 989 888 q 1010 922 1010 910 q 1007 932 1010 925 q 976 939 1004 939 l 508 939 q 365 869 428 939 q 322 808 336 838 l 299 808 l 388 972 l 1274 972 l 1265 949 l 1260 949 q 1126 874 1206 949 l 285 83 q 263 49 263 61 q 265 40 263 47 q 294 32 268 32 l 767 32 q 849 53 813 32 q 912 102 886 74 q 951 157 938 131 l 956 163 l 979 163 l 890 -1 z "},"a":{"ha":997,"x_min":-1,"x_max":968,"o":"m 961 -3 l 672 -3 l 681 21 q 740 40 717 21 q 764 85 764 58 l 765 90 l 750 308 l 358 308 l 207 115 q 182 60 182 81 q 261 21 182 21 l 253 -3 l -1 -3 l 7 21 l 13 21 q 174 118 94 21 l 840 971 l 900 97 q 925 36 907 57 l 931 33 q 968 17 940 26 l 961 -3 m 747 342 l 718 768 l 385 342 l 747 342 z "},"b":{"ha":872,"x_min":0,"x_max":972,"o":"m 475 -1 l 0 -1 l 7 21 q 74 43 44 21 q 117 97 104 65 l 397 865 q 403 894 403 882 q 398 916 403 904 q 377 936 393 928 q 344 947 361 944 l 354 972 l 742 972 q 860 956 801 972 q 946 897 918 939 q 963 843 963 875 q 950 781 961 815 q 774 622 907 669 q 950 518 907 601 q 972 424 972 476 q 951 313 972 372 q 774 87 900 175 q 475 -1 647 -1 m 486 32 q 697 110 614 32 q 825 313 781 189 q 854 453 854 390 q 853 488 854 456 q 815 558 853 521 q 692 594 776 594 l 424 594 l 242 97 q 236 68 236 81 q 243 44 236 57 q 288 32 250 32 l 486 32 m 618 628 q 717 653 676 629 q 831 801 799 699 q 838 847 838 826 q 831 887 838 867 q 801 923 825 907 q 729 939 778 939 l 618 939 q 558 922 579 939 q 525 874 536 906 l 436 628 l 618 628 z "},"c":{"ha":868,"x_min":138,"x_max":1140,"o":"m 447 -3 q 178 125 257 -3 q 138 281 138 190 q 175 481 138 368 l 176 486 q 367 782 244 664 q 664 954 496 908 q 792 971 729 971 l 835 969 q 1064 794 1018 949 q 1103 840 1081 794 q 1117 875 1113 860 l 1140 875 l 1035 582 l 1011 582 l 1013 588 q 1036 717 1036 656 q 1032 758 1036 740 q 783 938 990 932 q 495 809 615 935 q 304 488 375 683 l 303 486 l 303 483 l 301 482 l 301 479 q 254 244 254 351 q 303 89 254 147 q 458 31 351 31 q 711 92 596 31 q 911 264 826 154 q 922 269 917 269 q 928 267 926 269 l 926 258 q 717 69 840 140 q 447 -3 593 -3 z "},"d":{"ha":878,"x_min":6,"x_max":1061,"o":"m 414 -1 l 6 -1 l 13 21 q 80 43 50 21 q 122 97 110 65 l 406 874 q 411 906 411 892 q 401 933 411 922 q 372 947 390 944 l 344 947 l 354 972 l 768 972 q 1026 843 953 972 q 1061 696 1061 781 q 1019 485 1061 604 q 766 128 933 257 q 414 -1 599 -1 m 425 32 q 626 92 538 32 q 893 483 790 203 l 894 488 q 951 744 951 640 q 910 883 951 828 q 756 939 868 939 l 624 939 q 563 922 585 939 q 531 874 542 906 l 249 97 q 242 65 242 79 q 249 44 242 56 q 293 32 256 32 l 425 32 z "},"e":{"ha":818,"x_min":0,"x_max":1108,"o":"m 783 -1 l 0 -1 l 7 21 q 74 43 44 21 q 117 97 104 65 l 400 872 q 404 899 404 886 q 344 947 404 947 l 354 972 l 1108 972 l 1078 808 l 1054 808 q 1058 840 1058 824 q 1055 876 1058 854 q 1030 918 1051 897 q 963 939 1008 939 l 622 939 q 525 872 549 939 l 410 557 l 536 557 q 654 631 606 557 q 682 688 676 667 l 706 688 l 599 393 l 575 393 l 576 397 q 588 460 588 428 q 524 524 588 524 l 397 524 l 242 97 q 236 69 236 82 q 244 44 236 57 q 292 32 253 32 l 674 32 q 743 54 714 32 q 790 106 772 76 q 817 157 808 135 l 819 163 l 843 163 l 783 -1 z "},"f":{"ha":819,"x_min":1,"x_max":1110,"o":"m 290 -1 l 1 -1 l 8 21 q 75 43 46 21 q 117 97 104 65 l 400 874 q 406 900 406 888 q 394 931 406 915 q 344 947 383 947 l 354 972 l 1110 972 l 1079 808 l 1056 808 l 1056 814 q 1058 844 1058 829 q 1056 876 1058 856 q 1031 918 1053 897 q 964 939 1010 939 l 624 939 q 526 874 549 939 l 411 557 l 568 557 q 686 631 638 557 q 714 688 708 667 l 738 688 l 631 393 l 607 393 l 608 397 q 619 460 619 428 q 556 524 619 524 l 399 524 l 243 97 q 239 72 239 85 q 297 21 239 21 l 290 -1 z "},"g":{"ha":957,"x_min":138,"x_max":1142,"o":"m 840 -1 l 715 -1 l 768 144 l 747 122 q 683 72 725 100 q 583 21 642 43 q 447 -1 524 -1 q 214 83 297 -1 q 138 292 138 160 q 151 401 138 342 l 163 444 q 178 489 169 468 q 438 844 265 715 q 797 972 610 972 q 1065 796 1014 967 q 1085 810 1075 796 q 1103 841 1096 824 q 1115 871 1111 858 l 1118 876 l 1142 876 l 1035 583 l 1011 583 l 1013 589 q 1038 715 1038 656 q 1032 760 1038 740 q 783 939 990 933 l 781 939 q 417 715 571 939 q 279 410 318 574 l 269 372 q 254 251 254 307 q 262 171 254 222 q 319 76 269 119 q 458 32 368 32 q 601 60 539 32 q 706 124 664 88 q 771 188 749 160 l 793 215 l 856 386 q 861 413 861 400 q 815 451 861 451 l 769 451 l 782 485 l 1099 485 l 1090 463 q 1024 440 1054 463 q 981 386 993 418 l 840 -1 z "},"h":{"ha":953,"x_min":0,"x_max":1272,"o":"m 918 -1 l 629 -1 l 636 21 q 703 43 674 21 q 746 97 733 65 l 882 468 l 378 468 l 242 97 q 238 72 238 85 q 296 21 238 21 l 289 -1 l 0 -1 l 7 21 q 74 43 44 21 q 117 97 104 65 l 400 874 q 404 899 404 886 q 382 936 404 924 q 344 947 365 946 l 354 972 l 643 972 l 635 949 q 567 927 597 949 q 525 874 538 906 l 389 501 l 893 501 l 1029 874 q 1033 899 1033 888 q 975 949 1033 949 l 983 972 l 1272 972 l 1264 949 q 1197 927 1226 949 q 1154 874 1167 906 l 871 97 q 867 72 867 85 q 925 21 867 21 l 918 -1 z "},"i":{"ha":324,"x_min":0,"x_max":643,"o":"m 289 -1 l 0 -1 l 7 21 q 74 43 44 21 q 117 97 104 65 l 400 874 q 404 899 404 888 q 346 949 404 949 l 354 972 l 643 972 l 635 949 q 567 927 597 949 q 525 874 538 906 l 242 97 q 238 72 238 85 q 296 21 238 21 l 289 -1 z "},"j":{"ha":786,"x_min":76,"x_max":1106,"o":"m 307 -3 q 147 35 201 -3 q 76 168 76 81 q 96 260 76 207 l 133 260 l 128 243 q 114 175 114 208 q 122 124 114 157 q 177 60 129 92 q 319 29 225 29 q 514 92 439 29 q 669 329 604 168 l 704 421 l 871 876 q 876 906 876 893 q 869 928 876 915 q 822 940 861 940 l 536 940 q 396 872 456 940 q 356 814 363 833 l 332 814 l 419 972 l 1106 972 l 1097 950 q 1032 928 1061 950 q 992 876 1003 907 q 793 338 803 358 l 771 293 q 697 178 749 247 q 517 41 618 85 q 307 -3 417 -3 z "},"k":{"ha":953,"x_min":0,"x_max":1236,"o":"m 918 -1 l 617 -1 l 624 21 l 629 21 q 681 56 668 21 q 683 75 683 65 q 681 90 683 82 q 539 482 679 97 l 322 317 l 242 97 q 238 72 238 85 q 296 21 238 21 l 289 -1 l 0 -1 l 7 21 q 74 43 44 21 q 117 97 104 65 q 402 881 401 878 q 404 888 403 885 l 404 893 q 350 947 404 947 l 344 947 l 354 972 l 643 972 l 635 949 q 567 927 597 949 q 525 874 538 906 l 340 365 l 1008 875 q 1042 924 1042 901 q 1031 941 1042 933 q 986 949 1021 949 l 994 972 l 1236 972 l 1228 949 q 1042 865 1160 949 l 663 575 l 835 99 q 865 46 846 71 q 919 21 883 21 l 925 21 l 918 -1 z "},"l":{"ha":825,"x_min":1,"x_max":850,"o":"m 790 -1 l 1 -1 l 8 21 q 75 43 46 21 q 117 97 104 65 l 400 872 q 404 892 404 882 q 351 947 404 947 l 344 947 l 354 972 l 644 972 l 636 949 q 568 927 597 949 q 526 872 539 906 l 243 97 q 238 69 238 82 q 245 44 238 57 q 293 32 253 32 l 679 32 q 749 55 719 32 q 798 106 779 78 q 824 157 817 135 l 826 163 l 850 163 l 790 -1 z "},"m":{"ha":1051,"x_min":0,"x_max":1371,"o":"m 1017 -1 l 728 -1 l 735 21 q 803 43 774 21 q 844 97 833 65 l 1100 797 l 475 -1 l 421 768 l 185 119 q 176 81 176 97 q 263 21 176 21 l 256 -1 l 0 -1 l 7 21 q 86 41 44 21 q 151 119 128 61 l 415 844 l 415 872 q 405 911 414 892 q 379 942 396 931 q 344 947 365 947 l 354 972 l 549 972 l 597 201 l 1131 883 l 1132 896 q 1079 949 1132 949 l 1074 949 l 1082 972 l 1371 972 l 1363 949 q 1296 927 1325 949 q 1254 872 1267 906 l 971 97 q 967 71 967 83 q 1024 21 967 21 l 1017 -1 z "},"n":{"ha":919,"x_min":0,"x_max":1239,"o":"m 885 -1 l 692 -1 l 440 822 l 185 119 q 176 81 176 97 q 263 21 176 21 l 256 -1 l 0 -1 l 7 21 q 86 41 44 21 q 151 119 128 61 l 426 872 l 419 893 q 343 943 403 936 l 354 972 l 547 972 l 796 149 l 1051 850 q 1060 889 1060 872 q 974 949 1060 949 l 982 972 l 1239 972 l 1231 949 q 1085 850 1124 949 l 811 99 l 817 78 q 840 37 825 53 q 892 21 856 21 l 885 -1 z "},"o":{"ha":892,"x_min":135,"x_max":1074,"o":"m 428 -1 q 169 128 242 -1 q 135 274 135 189 q 176 485 135 365 q 429 842 263 713 q 782 972 596 972 q 1003 893 925 972 q 1074 696 1074 822 l 1074 672 l 1068 619 q 1033 485 1061 565 q 780 128 947 257 q 428 -1 613 -1 m 439 32 q 640 92 551 32 q 907 483 804 203 l 908 488 q 961 731 961 639 q 960 785 961 736 q 922 872 958 833 q 764 944 867 944 q 581 885 682 944 q 304 488 407 776 l 303 483 q 246 222 246 332 q 287 87 246 142 q 439 32 328 32 z "},"p":{"ha":872,"x_min":0,"x_max":1099,"o":"m 289 -1 l 0 -1 l 7 21 q 74 43 44 21 q 117 97 104 65 l 400 874 q 404 896 404 886 q 343 943 404 938 l 354 972 l 829 972 q 1011 931 944 972 q 1099 768 1099 875 q 1076 657 1099 717 q 899 431 1025 519 q 600 343 772 343 l 332 343 l 242 97 q 238 72 238 85 q 296 21 238 21 l 289 -1 m 613 376 q 822 455 739 376 q 950 657 906 533 q 979 797 979 735 l 979 833 q 940 902 979 865 q 817 939 901 939 l 618 939 q 558 922 579 939 q 525 874 536 906 l 344 376 l 613 376 z "},"q":{"ha":1024,"x_min":135,"x_max":1074,"o":"m 428 -1 q 169 128 242 -1 q 135 274 135 189 q 176 485 135 365 q 429 842 263 713 q 782 972 596 972 q 1003 893 925 972 q 1074 696 1074 822 l 1074 672 l 1068 619 q 1033 485 1061 565 q 780 128 947 257 q 428 -1 613 -1 m 439 32 q 640 92 551 32 q 907 483 804 203 l 908 488 q 961 731 961 639 q 960 785 961 736 q 922 872 958 833 q 764 944 867 944 q 581 885 682 944 q 304 488 407 776 l 303 483 q 246 222 246 332 q 287 87 246 142 q 439 32 328 32 m 693 -176 l 682 -176 q 479 -137 594 -176 q 358 -117 414 -117 q 308 -119 347 -117 q 229 -137 268 -122 l 189 -153 q 346 -60 256 -85 q 426 -49 386 -49 q 517 -64 472 -49 l 538 -72 q 714 -119 611 -106 q 753 -122 732 -122 q 963 -71 843 -122 l 933 -96 q 844 -147 904 -122 q 693 -176 785 -172 z "},"r":{"ha":951,"x_min":0,"x_max":1099,"o":"m 917 -1 l 628 -1 l 635 21 q 702 43 672 21 q 744 96 732 65 l 756 125 q 772 211 772 175 q 751 279 772 244 q 679 328 729 314 q 596 343 629 343 l 332 343 l 242 97 q 238 72 238 85 q 296 21 238 21 l 289 -1 l 0 -1 l 7 21 q 74 43 44 21 q 117 97 104 65 l 401 876 q 404 896 404 886 q 386 929 404 917 q 343 943 368 942 l 354 972 l 829 972 q 1011 931 944 972 q 1099 768 1099 875 q 1076 657 1099 717 q 944 466 1036 546 q 721 356 851 386 q 858 279 806 336 q 889 193 889 246 q 874 108 889 156 q 872 101 872 104 q 869 97 871 99 q 865 72 865 85 q 924 21 865 21 l 917 -1 m 613 376 q 822 455 739 376 q 950 657 906 533 q 979 797 979 735 l 979 833 q 940 902 979 865 q 817 939 901 939 l 618 939 q 558 922 579 939 q 525 874 536 906 l 344 376 l 613 376 z "},"s":{"ha":851,"x_min":75,"x_max":1071,"o":"m 383 -1 q 160 56 243 -1 q 75 201 78 114 q 83 218 75 213 q 100 224 92 224 q 110 215 110 224 q 194 84 114 136 q 397 32 275 32 q 666 97 567 32 q 789 257 765 161 q 793 290 793 275 q 729 390 793 353 q 561 453 665 426 q 408 505 479 474 q 306 593 338 536 q 292 653 292 618 q 467 903 292 807 q 767 972 585 967 q 931 938 875 972 q 1003 861 988 903 q 1017 874 1008 861 q 1033 902 1025 886 q 1046 929 1042 918 l 1049 933 l 1071 933 l 978 681 l 956 681 l 958 686 q 975 776 975 736 q 925 888 975 838 q 760 939 875 939 q 558 894 649 939 q 436 765 468 849 q 428 719 428 740 q 488 630 428 665 q 657 567 549 594 q 814 510 740 543 q 919 419 888 478 q 933 361 933 394 q 911 263 933 318 q 808 131 881 190 q 626 35 735 71 q 383 -1 518 -1 z "},"t":{"ha":894,"x_min":285,"x_max":1214,"o":"m 575 -1 l 285 -1 l 292 21 q 358 43 329 21 q 400 97 388 65 l 683 874 q 689 903 689 890 q 682 926 689 914 q 635 939 675 939 l 464 939 q 347 865 394 939 q 318 808 324 829 l 294 808 l 354 972 l 1214 972 l 1154 808 l 1131 808 l 1132 814 q 1143 875 1143 844 q 1131 919 1143 899 q 1079 939 1119 939 l 908 939 q 813 874 835 939 l 529 97 q 525 71 525 83 q 535 38 525 56 q 576 21 546 21 l 582 21 l 575 -1 z "},"u":{"ha":886,"x_min":178,"x_max":1206,"o":"m 443 -1 q 196 104 243 -1 q 178 200 178 144 q 228 426 178 292 l 390 874 q 396 903 396 889 q 346 949 396 946 l 354 972 l 635 972 l 626 949 q 558 927 588 949 q 517 874 529 906 l 353 424 q 292 171 292 257 q 322 73 292 114 q 454 32 353 32 q 647 82 574 32 q 769 218 721 132 q 857 418 817 304 l 1014 850 q 1022 890 1022 874 q 940 949 1022 949 l 949 972 l 1206 972 l 1197 949 q 1115 929 1160 949 q 1047 850 1071 910 l 929 529 l 889 415 q 826 263 861 336 q 743 129 792 189 q 443 -1 635 -1 z "},"v":{"ha":993,"x_min":344,"x_max":1313,"o":"m 469 -1 l 410 874 q 389 919 407 897 q 344 947 371 940 l 354 972 l 639 972 l 631 949 q 570 929 594 949 q 546 879 546 910 l 593 201 l 1104 854 q 1128 908 1128 888 q 1050 949 1128 949 l 1058 972 l 1313 972 l 1304 949 q 1214 926 1250 949 q 1138 851 1178 904 l 469 -1 z "},"w":{"ha":1344,"x_min":346,"x_max":1664,"o":"m 821 -1 l 792 424 l 460 -1 l 400 874 q 385 920 399 897 q 346 949 372 943 l 354 972 l 628 972 l 619 949 q 560 929 585 949 q 536 879 536 910 l 582 201 l 789 465 l 761 874 q 744 924 760 900 q 693 949 729 949 l 701 972 l 990 972 l 982 949 q 922 930 946 949 q 899 885 899 911 l 897 879 l 915 626 l 1094 854 q 1118 908 1118 888 q 1039 949 1118 949 l 1047 972 l 1301 972 l 1293 949 q 1204 926 1240 949 q 1128 851 1168 904 q 918 585 944 617 l 944 201 l 1456 854 q 1481 910 1481 889 q 1401 949 1481 949 l 1410 972 l 1664 972 l 1656 949 q 1567 926 1603 949 q 1489 851 1531 904 l 821 -1 z "},"x":{"ha":954,"x_min":0,"x_max":1274,"o":"m 918 -1 l 629 -1 l 636 21 q 686 39 671 21 q 697 69 697 51 l 696 83 l 582 418 l 240 118 q 201 61 201 85 q 219 31 201 42 q 263 21 236 21 l 256 -1 l 0 -1 l 7 21 q 161 88 63 21 l 572 447 l 428 874 q 346 949 406 949 l 354 972 l 643 972 l 635 949 q 588 934 600 949 q 575 901 575 919 l 576 888 l 689 551 l 1032 850 q 1069 908 1069 885 q 1052 939 1069 929 q 1008 949 1035 949 l 1017 972 l 1274 972 l 1265 949 q 1186 928 1231 949 q 1093 868 1142 908 q 700 522 1074 850 l 843 97 q 871 44 853 68 q 925 21 889 21 l 918 -1 z "},"y":{"ha":957,"x_min":306,"x_max":1276,"o":"m 594 -1 l 306 -1 l 313 21 q 380 43 350 21 q 422 97 410 65 l 564 483 l 432 874 q 403 925 422 901 q 351 949 385 949 l 346 949 l 354 972 l 646 972 l 638 949 q 589 932 603 949 q 578 904 578 921 q 581 888 578 896 l 693 551 l 1035 850 q 1074 908 1074 885 q 1056 939 1074 929 q 1013 949 1039 949 l 1021 972 l 1276 972 l 1268 949 q 1189 928 1233 949 q 1096 868 1144 908 q 703 522 1076 850 l 547 97 q 543 72 543 85 q 601 21 543 21 l 594 -1 z "},"z":{"ha":954,"x_min":0,"x_max":1274,"o":"m 890 -1 l 0 -1 l 7 21 l 13 21 q 146 97 65 21 l 989 888 q 1010 922 1010 910 q 1007 932 1010 925 q 976 939 1004 939 l 508 939 q 365 869 428 939 q 322 808 336 838 l 299 808 l 388 972 l 1274 972 l 1265 949 l 1260 949 q 1126 874 1206 949 l 285 83 q 263 49 263 61 q 265 40 263 47 q 294 32 268 32 l 767 32 q 849 53 813 32 q 912 102 886 74 q 951 157 938 131 l 956 163 l 979 163 l 890 -1 z "},"D":{"ha":878,"x_min":6,"x_max":1061,"o":"m 414 -1 l 6 -1 l 13 21 q 80 43 50 21 q 122 97 110 65 l 406 874 q 411 906 411 892 q 401 933 411 922 q 372 947 390 944 l 344 947 l 354 972 l 768 972 q 1026 843 953 972 q 1061 696 1061 781 q 1019 485 1061 604 q 766 128 933 257 q 414 -1 599 -1 m 425 32 q 626 92 538 32 q 893 483 790 203 l 894 488 q 951 744 951 640 q 910 883 951 828 q 756 939 868 939 l 624 939 q 563 922 585 939 q 531 874 542 906 l 249 97 q 242 65 242 79 q 249 44 242 56 q 293 32 256 32 l 425 32 z "},"!":{"ha":189,"x_min":-47,"x_max":479,"o":"m 1 -218 q -40 -199 -28 -218 q -47 -172 -47 -187 q -43 -149 -47 -161 q -5 -99 -32 -119 q 51 -79 22 -79 q 93 -100 81 -79 q 100 -125 100 -111 q 96 -149 100 -136 q 58 -198 85 -178 q 1 -218 31 -218 m 82 0 l 76 0 q 69 6 69 0 q 325 890 263 685 q 349 924 331 904 q 432 972 393 972 q 472 942 461 972 q 479 908 479 924 q 476 889 479 899 q 218 296 363 624 q 82 0 88 1 z "},"\"":{"ha":224,"x_min":331,"x_max":543,"o":"m 378 910 l 331 910 l 424 972 l 471 972 l 378 910 m 450 910 l 403 910 l 496 972 l 543 972 l 450 910 z "},"#":{"ha":1088,"x_min":140,"x_max":1257,"o":"m 540 -7 l 478 -7 l 719 326 l 461 326 l 221 -7 l 158 -7 l 399 326 l 140 326 l 140 386 l 440 386 l 567 560 l 225 560 l 225 619 l 608 618 l 858 965 l 921 965 l 671 618 l 929 618 l 1178 965 l 1242 965 l 992 618 l 1257 618 l 1257 560 l 950 560 l 824 386 l 1172 386 l 1172 326 l 782 326 l 540 -7 m 761 386 l 886 560 l 629 560 l 503 386 l 761 386 z "},"$":{"ha":615,"x_min":22,"x_max":807,"o":"m 293 -67 l 239 -67 l 267 13 q 133 82 179 31 q 110 94 122 93 q 83 88 96 94 q 61 73 71 82 q 46 57 51 64 l 39 50 l 22 60 l 182 257 l 197 246 q 169 151 169 204 l 169 144 q 203 74 171 99 q 278 43 235 50 l 418 428 q 300 526 342 464 q 279 597 279 556 q 306 707 279 644 q 438 853 353 804 q 593 910 524 903 l 617 972 l 671 972 l 649 911 q 751 883 715 908 l 760 882 q 776 894 768 882 l 782 904 l 807 904 l 743 728 l 718 728 q 732 772 725 744 q 738 806 738 792 l 736 817 q 640 888 722 881 l 511 535 l 517 532 q 625 472 575 506 q 690 381 675 438 q 694 350 694 367 q 661 233 694 301 q 533 82 618 147 q 321 10 449 17 l 293 -67 m 465 558 l 583 883 q 383 718 444 854 q 374 668 374 690 q 465 558 374 606 m 331 39 q 508 111 436 47 q 594 246 581 175 l 596 267 q 560 342 596 310 q 464 403 525 374 l 331 39 z "},"%":{"ha":706,"x_min":131,"x_max":893,"o":"m 193 -1 l 131 -1 l 829 971 l 893 971 l 193 -1 m 381 578 q 274 629 299 578 q 261 683 261 654 q 279 767 261 714 q 282 774 279 771 q 374 904 311 853 q 514 956 436 956 l 518 956 q 629 853 629 956 q 628 826 629 849 q 615 772 628 803 l 615 769 l 614 767 q 613 763 613 765 q 611 760 613 761 q 573 688 601 731 q 497 612 544 646 q 381 578 449 578 m 386 597 q 488 647 453 600 q 543 760 522 694 q 544 763 544 761 q 546 767 544 765 q 549 774 547 769 q 575 876 575 839 q 565 916 575 897 q 508 935 554 935 q 406 886 442 933 q 350 774 371 839 l 349 771 l 344 758 q 318 657 318 693 q 329 617 318 636 q 386 597 340 597 m 515 28 q 410 79 435 28 q 397 136 397 104 q 411 210 397 169 q 414 217 411 214 l 414 218 q 415 219 414 219 l 417 225 q 510 354 447 303 q 653 406 572 406 q 767 300 767 406 q 753 224 767 263 q 750 219 751 222 q 749 214 749 215 q 747 211 749 213 q 708 139 738 181 q 515 28 632 28 m 522 49 q 596 72 567 49 q 645 131 625 94 q 679 211 665 168 l 682 217 l 682 219 l 685 224 q 710 336 710 289 q 644 386 708 383 q 569 364 599 386 q 485 225 522 325 l 483 221 q 481 216 482 218 q 479 210 479 214 q 454 107 454 142 q 465 67 454 86 q 522 49 476 49 z "},"&":{"ha":771,"x_min":96,"x_max":850,"o":"m 339 0 q 188 33 242 0 q 115 115 135 67 q 96 213 96 164 q 97 244 96 217 q 114 313 99 272 q 115 317 114 315 q 117 322 117 318 q 231 501 158 431 q 394 601 304 571 q 376 667 376 628 q 393 754 376 704 q 510 915 433 858 q 664 972 586 972 q 763 944 731 972 q 801 857 801 910 q 763 779 801 808 q 707 757 735 757 q 667 775 679 757 q 658 800 658 786 q 663 824 658 811 q 699 874 672 854 q 756 894 726 894 l 765 894 q 667 956 744 956 q 552 906 600 956 q 481 794 504 857 q 463 706 463 746 q 467 663 463 693 q 514 633 471 633 q 536 608 536 633 q 531 583 536 596 l 513 533 q 325 476 406 533 q 206 315 244 419 q 186 210 186 261 q 190 157 186 196 q 233 76 193 118 q 350 35 274 35 q 501 78 429 35 q 631 190 574 121 q 653 246 653 219 q 647 276 653 256 q 600 297 640 297 l 525 297 q 465 325 485 297 q 456 363 456 342 q 461 396 456 378 l 781 396 q 840 368 822 396 q 850 331 850 351 q 844 297 850 315 l 760 297 q 733 288 746 297 q 711 265 719 279 q 633 156 685 218 q 506 47 581 94 q 339 0 432 0 z "},"'":{"ha":151,"x_min":331,"x_max":471,"o":"m 378 910 l 331 910 l 424 972 l 471 972 l 378 910 z "},"(":{"ha":443,"x_min":81,"x_max":718,"o":"m 340 -186 q 108 -26 171 -172 q 81 119 81 39 q 121 333 81 215 q 371 697 204 551 q 718 851 538 842 l 711 831 q 571 757 681 822 q 226 322 342 618 q 189 125 189 210 q 203 26 189 92 q 266 -96 217 -40 q 347 -168 315 -151 l 340 -186 z "},")":{"ha":443,"x_min":-67,"x_max":569,"o":"m -67 -185 l -60 -164 q 81 -90 -18 -150 q 424 344 310 49 q 463 540 463 456 q 449 640 463 574 q 385 763 435 707 q 304 835 335 818 l 310 853 q 542 693 481 839 q 569 547 569 628 q 529 333 569 451 q 281 -30 447 115 q -67 -185 114 -175 z "},"*":{"ha":254,"x_min":240,"x_max":524,"o":"m 335 619 q 324 631 324 619 l 340 681 q 329 692 339 690 q 317 688 324 692 l 264 651 q 253 647 256 647 q 240 657 240 647 q 251 675 240 667 l 340 736 q 350 751 350 742 l 349 760 l 304 821 l 303 828 q 310 842 303 836 q 325 849 317 849 q 329 848 328 849 q 361 808 331 847 q 371 804 365 804 q 392 822 385 804 q 407 858 400 840 q 429 876 414 876 q 440 867 440 876 q 432 840 440 864 q 424 813 424 815 q 435 804 424 804 q 447 808 440 804 l 500 844 q 511 849 506 849 q 524 839 524 849 q 513 821 524 829 l 424 760 q 413 742 413 751 q 415 736 413 739 q 463 668 463 672 q 456 655 463 663 q 439 647 450 647 q 431 651 432 647 l 403 688 q 393 692 399 692 q 372 674 379 692 q 356 635 364 656 q 348 624 354 628 q 335 619 342 619 z "},"+":{"ha":678,"x_min":140,"x_max":818,"o":"m 400 88 l 306 88 l 414 386 l 140 386 l 175 481 l 449 481 l 558 782 l 653 782 l 543 481 l 818 481 l 783 386 l 508 386 l 400 88 z "},",":{"ha":175,"x_min":17,"x_max":169,"o":"m 21 -56 l 19 -56 q 17 -51 17 -56 q 19 -47 17 -49 q 68 0 40 -29 q 28 21 40 1 q 21 46 21 32 q 25 69 21 57 q 64 119 38 100 q 119 139 90 139 q 161 119 149 139 q 169 94 169 108 q 164 69 169 83 l 160 58 q 139 26 154 46 q 95 -15 124 7 q 21 -56 67 -36 z "},"-":{"ha":678,"x_min":121,"x_max":797,"o":"m 764 331 l 121 331 l 154 425 l 797 425 l 764 331 z "},".":{"ha":174,"x_min":21,"x_max":169,"o":"m 69 0 q 28 19 40 0 q 21 46 21 31 q 25 69 21 57 q 64 119 38 100 q 119 139 90 139 q 161 119 149 139 q 169 94 169 108 q 164 69 169 83 q 126 20 153 40 q 69 0 99 0 z "},"/":{"ha":443,"x_min":0,"x_max":763,"o":"m 63 0 l 0 0 l 700 972 l 763 972 l 63 0 z "},":":{"ha":174,"x_min":21,"x_max":346,"o":"m 69 -1 q 28 19 40 -1 q 21 44 21 31 q 64 119 21 88 q 119 139 90 139 q 161 118 149 139 q 168 93 168 107 q 164 69 168 82 q 126 19 153 39 q 69 -1 99 -1 m 246 485 q 204 506 217 485 q 197 531 197 517 q 201 554 197 542 q 240 604 214 585 q 296 624 267 624 q 338 604 325 624 q 346 579 346 593 q 340 554 346 568 q 302 505 329 525 q 246 485 275 485 z "},";":{"ha":175,"x_min":17,"x_max":346,"o":"m 21 -56 l 19 -56 q 17 -51 17 -56 q 19 -47 17 -49 q 68 0 40 -29 q 28 21 40 1 q 21 46 21 32 q 25 69 21 57 q 64 119 38 100 q 119 139 90 139 q 161 119 149 139 q 169 94 169 108 q 164 69 169 83 l 160 58 q 139 26 154 46 q 95 -15 124 7 q 21 -56 67 -36 m 246 485 q 204 504 217 485 q 197 531 197 515 q 201 554 197 542 q 240 604 214 585 q 296 624 267 624 q 338 604 325 624 q 346 579 346 593 q 340 554 346 568 q 302 505 329 525 q 246 485 275 485 z "},"<":{"ha":369,"x_min":150,"x_max":589,"o":"m 379 124 l 308 124 l 150 413 l 517 703 l 589 703 l 222 413 l 379 124 z "},"=":{"ha":678,"x_min":94,"x_max":906,"o":"m 872 628 l 229 628 l 263 722 l 906 722 l 872 628 m 738 261 l 94 261 l 129 356 l 772 356 l 738 261 z "},">":{"ha":369,"x_min":43,"x_max":483,"o":"m 115 118 l 43 118 l 413 407 l 256 697 l 328 697 l 483 407 l 115 118 z "},"?":{"ha":643,"x_min":135,"x_max":867,"o":"m 183 -214 q 142 -193 154 -214 q 135 -168 135 -182 q 139 -144 135 -157 q 177 -94 150 -114 q 233 -75 204 -75 q 275 -94 263 -75 q 282 -119 282 -106 q 240 -193 282 -162 q 183 -214 213 -214 m 274 0 l 229 0 q 340 238 272 150 q 490 399 407 325 q 663 582 572 474 q 768 826 768 721 q 625 940 768 940 q 440 879 524 940 q 339 751 369 826 l 343 751 q 383 735 369 751 q 393 704 393 722 q 357 638 393 668 q 296 613 325 613 q 246 660 246 613 q 253 692 246 675 q 391 878 300 799 q 607 971 482 957 l 636 972 q 839 878 785 972 q 867 771 867 831 q 825 608 867 699 q 716 457 783 518 q 574 344 649 396 q 404 207 485 285 q 274 0 324 129 z "},"@":{"ha":1008,"x_min":94,"x_max":1131,"o":"m 435 -140 q 215 -74 301 -140 q 103 100 128 -8 q 94 178 94 138 q 126 346 94 256 q 398 693 207 553 q 789 833 589 833 q 1010 767 924 833 q 1122 592 1097 701 q 1131 513 1131 554 q 1100 346 1131 435 q 960 100 1043 199 q 764 -4 867 -4 q 654 104 657 -4 q 444 26 560 26 q 288 131 314 35 q 276 208 276 168 q 304 347 276 274 q 444 563 347 467 q 678 667 542 660 q 808 621 765 667 q 844 610 826 610 q 865 613 850 610 q 899 628 879 615 q 931 654 918 642 l 942 665 l 828 350 l 826 347 l 788 239 q 736 78 736 103 q 804 39 736 39 q 906 83 853 39 q 1001 208 958 128 q 1064 346 1044 289 q 1092 500 1092 428 q 1076 608 1092 539 q 981 738 1061 676 q 776 799 901 799 q 413 669 590 799 q 161 346 236 539 q 132 189 132 261 q 147 84 132 151 q 243 -44 163 17 q 447 -106 324 -106 q 533 -97 489 -106 l 518 -133 q 435 -140 476 -140 m 460 56 q 622 129 561 58 q 731 335 682 200 l 739 357 q 781 539 781 467 q 776 592 781 549 q 671 639 772 635 q 498 540 565 631 q 396 347 431 450 q 357 160 357 247 q 358 110 357 157 q 460 56 358 64 z "},"A":{"ha":997,"x_min":-1,"x_max":968,"o":"m 961 -3 l 672 -3 l 681 21 q 740 40 717 21 q 764 85 764 58 l 765 90 l 750 308 l 358 308 l 207 115 q 182 60 182 81 q 261 21 182 21 l 253 -3 l -1 -3 l 7 21 l 13 21 q 174 118 94 21 l 840 971 l 900 97 q 925 36 907 57 l 931 33 q 968 17 940 26 l 961 -3 m 747 342 l 718 768 l 385 342 l 747 342 z "},"B":{"ha":872,"x_min":0,"x_max":972,"o":"m 475 -1 l 0 -1 l 7 21 q 74 43 44 21 q 117 97 104 65 l 397 865 q 403 894 403 882 q 398 916 403 904 q 377 936 393 928 q 344 947 361 944 l 354 972 l 742 972 q 860 956 801 972 q 946 897 918 939 q 963 843 963 875 q 950 781 961 815 q 774 622 907 669 q 950 518 907 601 q 972 424 972 476 q 951 313 972 372 q 774 87 900 175 q 475 -1 647 -1 m 486 32 q 697 110 614 32 q 825 313 781 189 q 854 453 854 390 q 853 488 854 456 q 815 558 853 521 q 692 594 776 594 l 424 594 l 242 97 q 236 68 236 81 q 243 44 236 57 q 288 32 250 32 l 486 32 m 618 628 q 717 653 676 629 q 831 801 799 699 q 838 847 838 826 q 831 887 838 867 q 801 923 825 907 q 729 939 778 939 l 618 939 q 558 922 579 939 q 525 874 536 906 l 436 628 l 618 628 z "},"C":{"ha":868,"x_min":138,"x_max":1140,"o":"m 447 -3 q 178 125 257 -3 q 138 281 138 190 q 175 481 138 368 l 176 486 q 367 782 244 664 q 664 954 496 908 q 792 971 729 971 l 835 969 q 1064 794 1018 949 q 1103 840 1081 794 q 1117 875 1113 860 l 1140 875 l 1035 582 l 1011 582 l 1013 588 q 1036 717 1036 656 q 1032 758 1036 740 q 783 938 990 932 q 495 809 615 935 q 304 488 375 683 l 303 486 l 303 483 l 301 482 l 301 479 q 254 244 254 351 q 303 89 254 147 q 458 31 351 31 q 711 92 596 31 q 911 264 826 154 q 922 269 917 269 q 928 267 926 269 l 926 258 q 717 69 840 140 q 447 -3 593 -3 z "}}}
